<?xml version="1.0" standalone="no"?>
<!DOCTYPE svg PUBLIC "-//W3C//DTD SVG 20010904//EN"
 "http://www.w3.org/TR/2001/REC-SVG-20010904/DTD/svg10.dtd">
<svg version="1.0" xmlns="http://www.w3.org/2000/svg"
 width="768.000000pt" height="768.000000pt" viewBox="0 0 768.000000 768.000000"
 preserveAspectRatio="xMidYMid meet">
<metadata>
Created by potrace 1.11, written by Peter Selinger 2001-2013
</metadata>
<g transform="translate(0.000000,768.000000) scale(0.100000,-0.100000)"
fill="#000000" stroke="none">
<path d="M4038 7647 c-8 -9 -48 -74 -87 -146 -40 -72 -75 -133 -80 -135 -4 -3
-36 4 -70 14 -87 27 -111 26 -111 -4 0 -13 9 -52 20 -87 10 -34 17 -66 14 -70
-2 -4 -52 -33 -112 -64 -120 -64 -172 -100 -172 -119 0 -12 106 -79 205 -129
89 -45 88 -42 65 -115 -20 -62 -26 -122 -14 -122 4 0 42 10 85 21 63 18 81 20
93 10 15 -13 69 -102 64 -106 -2 -2 -52 -6 -113 -9 -211 -12 -321 -24 -494
-57 -57 -11 -105 -18 -107 -16 -2 2 8 31 22 66 61 150 46 255 -68 476 -66 129
-261 433 -288 450 -14 8 -45 -30 -126 -153 -139 -209 -248 -422 -274 -531 -39
-165 52 -356 210 -440 34 -18 58 -37 53 -41 -4 -4 -46 -27 -93 -51 -91 -46
-201 -111 -290 -170 l-55 -36 -42 29 c-49 33 -52 47 -19 91 42 55 87 156 100
225 64 337 -191 644 -533 643 -203 -1 -384 -109 -476 -282 -146 -277 -41 -601
238 -739 113 -56 188 -69 405 -71 100 -1 182 -5 182 -8 0 -4 -23 -24 -50 -46
-53 -42 -296 -291 -350 -360 -184 -231 -375 -576 -458 -827 -75 -225 -137
-522 -141 -675 -1 -41 -199 -120 -321 -129 -318 -24 -554 246 -470 538 27 94
120 186 217 214 73 21 183 15 238 -14 139 -71 186 -245 98 -361 -51 -67 -181
-94 -251 -51 -117 72 -83 250 48 250 40 0 90 -47 90 -84 0 -50 -66 -86 -98
-54 -7 7 -12 26 -12 44 0 27 -13 44 -35 44 -15 0 -35 -37 -35 -63 0 -75 74
-135 151 -122 112 19 175 137 125 233 -40 77 -114 122 -200 122 -90 0 -152
-38 -212 -129 -27 -41 -29 -52 -29 -135 0 -82 3 -96 29 -144 162 -293 599
-199 680 145 47 203 -55 412 -246 508 -91 45 -163 59 -273 52 -305 -19 -514
-244 -515 -551 0 -219 118 -401 320 -493 56 -25 164 -50 250 -58 75 -7 84 -16
100 -87 12 -57 1 -111 -33 -168 -11 -19 -83 -98 -159 -176 -97 -99 -144 -155
-160 -190 l-21 -49 -13 30 c-7 17 -14 41 -14 55 -3 49 -48 -74 -53 -141 -9
-148 39 -285 133 -379 123 -122 311 -163 468 -101 64 26 60 26 55 -2 -3 -15
10 -44 37 -85 23 -35 41 -64 39 -66 -2 -1 -21 -13 -41 -25 -21 -12 -38 -25
-38 -27 0 -13 89 -86 128 -105 62 -31 159 -30 227 0 44 19 135 95 135 112 0 3
-18 14 -40 24 -46 21 -49 38 -16 79 l24 28 40 -68 c62 -107 62 -108 0 -168
-29 -28 -80 -65 -113 -82 -56 -28 -61 -34 -78 -84 -23 -69 -29 -227 -11 -299
18 -67 77 -181 118 -226 l32 -35 40 27 c105 69 185 178 220 298 13 46 15 79
10 148 -3 49 -2 87 2 85 5 -2 37 -36 71 -76 73 -85 260 -275 346 -351 l60 -53
-35 6 c-102 18 -199 18 -276 1 -287 -62 -467 -292 -420 -538 12 -61 40 -118
96 -192 46 -61 53 -77 55 -120 3 -58 23 -111 56 -147 54 -57 114 -65 178 -23
l41 28 41 -28 c55 -36 97 -36 147 -1 l40 27 40 -25 c54 -34 82 -38 128 -16 65
29 103 96 109 187 2 44 9 60 44 101 98 118 135 245 107 366 -9 38 -28 91 -41
119 -14 27 -24 51 -22 53 2 2 73 -31 158 -74 85 -43 215 -101 289 -130 l135
-51 -80 -1 c-44 -1 -89 -3 -100 -5 -11 -2 -42 -7 -68 -11 l-48 -7 7 -41 c3
-22 19 -86 34 -141 15 -55 31 -114 34 -131 l7 -32 -96 -4 c-146 -6 -146 -2 26
-239 296 -408 370 -500 392 -497 14 2 23 11 25 26 2 13 -22 114 -53 224 -31
110 -53 204 -48 208 4 5 61 10 126 12 102 3 121 6 133 22 7 10 11 23 8 28 -7
12 -174 538 -174 549 0 4 26 1 58 -6 31 -7 92 -18 135 -25 43 -6 88 -13 100
-15 12 -2 38 -6 57 -9 112 -15 131 -19 135 -26 5 -9 -7 -32 -134 -257 l-102
-181 37 -69 c21 -37 48 -85 61 -105 13 -21 23 -40 23 -44 0 -3 39 -71 86 -150
l85 -145 260 2 c144 0 275 5 292 10 35 10 28 0 214 323 94 163 102 181 90 200
-40 62 -259 448 -255 451 2 2 35 9 73 15 210 33 501 132 729 246 190 96 424
253 570 384 37 34 70 59 73 57 2 -3 -4 -31 -13 -63 -25 -85 -23 -222 5 -305
48 -144 174 -275 316 -328 68 -26 200 -35 280 -20 160 30 318 171 385 344 33
85 33 234 0 320 -78 204 -241 331 -462 358 -46 6 -155 -14 -225 -41 -29 -11
-53 -18 -53 -14 0 3 26 39 58 81 69 89 166 234 208 308 16 29 31 53 34 53 3 0
16 -23 30 -50 80 -164 299 -259 483 -209 95 25 190 98 236 180 l24 42 -24 -7
c-139 -39 -226 -55 -216 -39 4 6 44 25 89 43 97 39 168 82 221 134 39 40 50
74 20 61 -102 -43 -181 -64 -293 -79 -38 -5 -42 -4 -30 8 8 7 40 21 70 30 138
44 311 143 368 211 60 74 68 115 15 78 -55 -38 -183 -80 -343 -113 -159 -33
-160 -24 -5 35 289 110 460 247 506 407 10 35 -3 36 -43 2 -91 -76 -373 -171
-708 -239 -69 -14 -140 -30 -158 -36 -18 -6 -35 -9 -37 -7 -3 2 11 65 29 139
19 74 41 177 50 229 14 90 18 117 31 235 4 28 8 64 10 80 2 17 4 37 5 45 0 8
15 -9 32 -39 71 -122 206 -216 346 -241 154 -27 312 27 432 149 134 135 176
306 120 482 -26 79 -61 135 -131 206 -69 70 -137 112 -216 134 -36 10 -68 21
-70 23 -3 3 7 40 21 83 29 88 32 125 12 142 -12 10 -34 -7 -123 -97 -59 -61
-157 -150 -218 -198 -135 -108 -125 -98 -174 -174 -46 -71 -41 -79 -66 95 -14
91 -57 298 -80 380 -4 17 32 45 244 184 287 188 309 205 315 246 3 17 17 97
30 179 14 82 23 152 20 155 -3 3 -110 7 -238 9 l-232 3 -44 -53 c-107 -129
-254 -298 -259 -298 -3 0 -21 28 -40 63 -47 86 -158 263 -198 316 -18 24 -33
47 -33 51 0 4 27 20 59 36 32 16 65 38 72 49 16 22 24 270 11 318 l-7 27 -110
-61 c-168 -93 -183 -104 -187 -139 -3 -31 -4 -31 -123 84 -66 63 -117 117
-114 120 2 3 57 -23 121 -58 l117 -63 137 79 c76 43 140 81 143 83 7 8 -22 26
-153 94 l-123 64 -156 -77 -156 -77 -84 63 c-45 35 -106 79 -135 98 -28 19
-52 38 -52 42 0 4 31 16 69 28 122 36 207 106 261 215 43 86 49 135 47 360 -2
181 -4 203 -22 235 -27 45 -77 74 -125 72 -31 -2 -47 6 -87 38 -43 37 -53 40
-99 39 -41 -2 -57 3 -85 24 -46 35 -106 44 -148 22 -30 -15 -34 -15 -51 0 -28
25 -85 30 -128 11 -61 -28 -73 -54 -79 -169 l-6 -102 -42 -46 c-62 -67 -85
-116 -99 -213 -5 -32 13 -129 35 -189 12 -32 19 -61 15 -64 -3 -3 -41 5 -83
20 -121 41 -280 76 -434 97 -77 10 -143 20 -145 23 -5 5 43 97 60 115 11 11
27 10 92 -6 106 -26 111 -21 83 83 -24 94 -38 76 134 173 65 37 123 74 128 83
10 19 -20 41 -181 129 -52 29 -97 54 -99 56 -2 2 4 32 13 68 20 79 21 130 4
124 -7 -3 -46 -13 -86 -24 l-74 -18 -19 24 c-18 23 -86 140 -117 200 -7 14
-21 36 -31 48 -16 22 -19 22 -33 9z m50 -489 c22 -39 43 -61 81 -83 28 -16 51
-32 51 -35 0 -3 -20 -17 -43 -32 -53 -34 -69 -51 -97 -105 -12 -24 -26 -40
-31 -37 -5 3 -18 22 -28 42 -26 51 -49 74 -98 102 -24 13 -43 26 -43 30 0 3
24 19 52 36 39 22 60 43 82 82 17 28 33 52 37 52 4 0 20 -24 37 -52z m-1375
-473 c55 -107 192 -138 292 -66 51 36 60 36 46 -1 -12 -31 -74 -86 -120 -105
-53 -22 -134 -11 -185 24 -53 37 -76 83 -76 154 0 60 11 85 21 47 3 -13 13
-37 22 -53z m-1072 -55 c19 -16 49 -33 67 -36 41 -8 41 -29 1 -53 -73 -45
-158 27 -119 100 6 10 12 19 14 19 2 0 19 -13 37 -30z m393 14 c24 -61 -17
-126 -75 -119 -29 4 -79 39 -79 56 0 4 16 10 34 13 20 4 48 20 63 36 31 34 48
38 57 14z m4886 -2455 c0 -34 -18 -58 -61 -80 -73 -37 -80 -20 -20 44 57 60
81 71 81 36z m312 -186 c36 -38 48 -73 48 -141 0 -71 -23 -111 -82 -146 -60
-35 -129 -40 -198 -15 -87 32 -100 34 -100 15 0 -14 -6 -12 -35 10 -29 22 -36
24 -41 11 -3 -9 2 -27 11 -41 35 -53 -6 -24 -56 39 -45 58 -53 64 -63 49 -11
-14 -15 -10 -34 34 -12 28 -22 59 -22 70 0 22 -3 21 295 93 94 23 181 47 195
54 28 15 43 9 82 -32z m-6071 -135 c0 -51 2 -118 4 -148 2 -30 6 -98 9 -150 3
-52 10 -119 16 -149 5 -30 8 -56 6 -58 -2 -2 -19 12 -39 31 -37 36 -102 77
-150 95 -31 12 -31 9 10 -45 52 -69 35 -144 -32 -144 -53 0 -69 32 -60 118 16
151 1 224 -71 333 -24 36 -44 68 -44 71 0 3 20 8 46 12 57 7 175 54 239 95 27
17 53 31 57 31 4 0 8 -42 9 -92z m-309 -798 c80 -23 102 -103 46 -163 -18 -19
-40 -36 -48 -39 -34 -12 3 -20 41 -9 51 15 116 73 124 112 10 46 25 23 25 -39
0 -72 -28 -135 -69 -156 -44 -23 -46 -34 -3 -29 123 15 237 121 285 266 11 31
24 18 47 -50 12 -37 43 -114 67 -172 25 -58 47 -113 49 -121 3 -9 -11 -40 -32
-70 -62 -92 -72 -100 -125 -100 l-47 0 -67 86 -68 86 39 34 c22 18 36 34 33
34 -3 0 -34 -14 -68 -31 -203 -102 -431 11 -431 213 0 32 3 58 8 58 4 0 17
-18 30 -40 12 -22 31 -44 42 -50 25 -13 25 -10 -1 35 -19 32 -20 41 -10 76 8
27 23 46 44 59 37 23 40 23 89 10z m5581 -1124 c142 -69 211 -181 209 -342 -2
-127 -56 -226 -160 -293 -57 -36 -132 -64 -162 -59 -20 3 -20 3 4 29 98 105
144 285 113 435 -18 83 -43 138 -100 213 l-40 54 42 -6 c23 -3 66 -17 94 -31z
m-4272 -525 c67 -25 137 -83 155 -128 18 -42 18 -117 0 -152 -21 -39 -91 -100
-145 -124 -37 -18 -65 -22 -146 -22 -89 0 -106 4 -157 28 -99 48 -150 117
-150 203 0 52 20 92 67 132 101 89 245 113 376 63z m1964 -572 c86 -40 129
-116 123 -215 -7 -119 -96 -195 -221 -191 -75 2 -124 29 -167 92 -57 83 -49
192 18 261 70 73 163 92 247 53z"/>
<path d="M5949 6503 c-1 -20 0 -150 1 -253 l0 -65 149 -77 c125 -65 149 -75
153 -60 8 31 10 219 3 264 -6 42 -11 47 -73 85 -80 49 -216 123 -225 123 -4 0
-7 -8 -8 -17z"/>
<path d="M6515 6482 c-99 -54 -187 -103 -208 -116 -16 -10 -18 -26 -16 -161 1
-82 4 -156 7 -163 3 -8 52 13 153 65 l149 78 0 168 c0 92 -3 167 -7 167 -5 0
-39 -17 -78 -38z"/>
<path d="M6545 6109 c-208 -109 -226 -121 -214 -135 15 -18 252 -154 269 -154
16 0 290 151 290 159 0 7 -281 151 -296 151 -5 0 -27 -9 -49 -21z"/>
<path d="M1317 6004 c-1 -1 -27 -4 -57 -8 -144 -16 -315 -60 -417 -106 -191
-87 -308 -235 -320 -407 -4 -49 -1 -101 7 -134 15 -65 68 -170 113 -223 l33
-39 98 109 97 109 -5 123 c-2 67 -1 120 3 117 5 -2 18 -30 30 -62 35 -95 35
-95 87 -39 l45 49 -5 86 -5 86 25 -47 c13 -27 30 -48 37 -47 6 0 36 29 66 65
60 70 86 85 46 27 -89 -135 -89 -135 -6 -149 l46 -7 -83 -17 c-85 -18 -90 -21
-133 -88 -31 -49 -21 -62 50 -62 33 0 62 -4 66 -10 6 -10 -35 -23 -136 -41
l-66 -12 -45 -66 c-25 -36 -62 -92 -82 -123 l-37 -58 33 -20 c143 -88 322 -84
468 10 76 49 129 109 170 195 49 101 61 168 61 342 0 219 -28 401 -66 433 -11
9 -109 21 -118 14z"/>
<path d="M6297 5903 c-3 -15 -6 -93 -6 -174 l-2 -146 150 -77 c82 -42 152 -76
155 -76 3 0 6 75 6 168 l0 167 -83 47 c-45 25 -112 62 -148 82 l-67 37 -5 -28z"/>
<path d="M7246 5400 c-10 -42 -34 -169 -52 -281 l-18 -106 58 -81 c31 -45 62
-84 67 -88 11 -6 76 35 105 67 17 19 16 27 -45 217 -34 108 -73 220 -85 247
-22 46 -24 48 -30 25z"/>
<path d="M7079 4922 c-58 -35 -409 -273 -409 -278 0 -6 225 -74 246 -74 11 0
42 16 69 36 28 19 93 66 145 103 52 37 96 74 97 82 1 8 -21 46 -50 86 l-53 72
-45 -27z"/>
<path d="M896 2300 c-81 -110 -116 -267 -86 -382 31 -112 137 -256 224 -300
l38 -20 29 34 c36 42 82 129 103 193 20 64 25 150 14 244 -14 114 -26 135
-100 169 -35 16 -86 50 -113 75 -27 26 -53 47 -57 47 -4 0 -28 -27 -52 -60z"/>
<path d="M5181 1358 c-77 -205 -234 -641 -251 -700 -7 -23 -5 -27 18 -31 38
-7 754 -6 773 2 13 5 -5 63 -108 346 -67 187 -129 354 -137 371 l-14 31 -136
2 c-134 2 -136 2 -145 -21z"/>
<path d="M4882 1137 c-6 -7 -36 -82 -67 -167 -31 -85 -72 -195 -91 -244 -41
-105 -40 -107 60 -104 l69 3 28 75 c30 76 128 348 147 407 6 17 8 34 5 37 -12
12 -140 6 -151 -7z"/>
</g>
</svg>
